<svg width="40" height="40" viewBox="0 0 40 40" fill="none" xmlns="http://www.w3.org/2000/svg">
<path d="M23.7188 24.7188C25.7726 24.7188 27.4375 23.0538 27.4375 21C27.4375 18.9462 25.7726 17.2812 23.7188 17.2812C21.6649 17.2812 20 18.9462 20 21C20 23.0538 21.6649 24.7188 23.7188 24.7188Z" stroke="white" stroke-width="2" stroke-linecap="round" stroke-linejoin="round"/>
<path d="M20 17.2812V9.84375H16.2812C15.295 9.84375 14.3491 10.2355 13.6517 10.9329C12.9543 11.6303 12.5625 12.5762 12.5625 13.5625C12.5625 14.5488 12.9543 15.4947 13.6517 16.1921C14.3491 16.8895 15.295 17.2812 16.2812 17.2812H20Z" stroke="white" stroke-width="2" stroke-linecap="round" stroke-linejoin="round"/>
<path d="M20 24.7188V17.2812H16.2812C15.295 17.2812 14.3491 17.673 13.6517 18.3704C12.9543 19.0678 12.5625 20.0137 12.5625 21C12.5625 21.9863 12.9543 22.9322 13.6517 23.6296C14.3491 24.327 15.295 24.7187 16.2812 24.7188H20Z" stroke="white" stroke-width="2" stroke-linecap="round" stroke-linejoin="round"/>
<path d="M20 17.2812V9.84375H23.7188C24.705 9.84375 25.6509 10.2355 26.3483 10.9329C27.0457 11.6303 27.4375 12.5762 27.4375 13.5625C27.4375 14.5488 27.0457 15.4947 26.3483 16.1921C25.6509 16.8895 24.705 17.2812 23.7188 17.2812H20Z" stroke="white" stroke-width="2" stroke-linecap="round" stroke-linejoin="round"/>
<path d="M20 24.7188V28.4375C20 29.173 19.7819 29.892 19.3733 30.5035C18.9647 31.1151 18.3839 31.5917 17.7044 31.8732C17.0248 32.1546 16.2771 32.2283 15.5558 32.0848C14.8344 31.9413 14.1718 31.5871 13.6517 31.0671C13.1316 30.547 12.7774 29.8844 12.634 29.163C12.4905 28.4416 12.5641 27.6939 12.8456 27.0144C13.127 26.3349 13.6037 25.7541 14.2152 25.3455C14.8268 24.9369 15.5458 24.7188 16.2813 24.7188H20Z" stroke="white" stroke-width="2" stroke-linecap="round" stroke-linejoin="round"/>
</svg>
