<svg width="40" height="40" viewBox="0 0 40 40" fill="none" xmlns="http://www.w3.org/2000/svg">
<path d="M9.92519 17.0189C9.98534 16.8628 10.7803 21.6894 14.4556 24.1022L14.0499 26.3381C15.0715 26.3711 16.0482 25.9182 16.682 25.1175L16.6798 25.1153C18.834 25.7147 21.6771 25.552 25.395 23.9144C25.395 23.9144 24.2971 27.5499 22.214 28.86C18.3528 31.2815 12.2708 30.1483 9.94377 26.1306C9.2822 24.9887 8.20947 21.7964 9.92519 17.0189V17.0189ZM25.781 14.4598C29.5411 15.8251 31.6206 19.8445 30.5596 23.696C30.1856 24.9603 29.43 27.4888 24.7826 29.526C24.5333 29.6373 32.2305 20.1708 20.6776 14.5843C22.3341 14.0691 24.1014 14.0259 25.781 14.4598ZM27.0375 12.8681C27.2124 13.0798 16.4578 10.1769 13.8618 21.0562V21.0507L13.8593 21.0479C13.7774 20.9546 11.7301 18.5996 11.8159 16.187C12.2879 12.132 15.7001 9.05606 19.7886 9C21.1106 9 23.7558 9 27.0375 12.8681V12.8681Z" fill="white"/>
</svg>
