<svg width="40" height="40" viewBox="0 0 40 40" fill="none" xmlns="http://www.w3.org/2000/svg">
<path d="M20.0001 15.625C20.0001 13.2187 22.0235 11.2172 24.4298 11.25C25.2725 11.2597 26.0944 11.5126 26.7968 11.9783C27.4992 12.4439 28.0521 13.1026 28.3892 13.875H32.2501L28.7173 17.4078C28.4893 20.9565 26.9184 24.2853 24.3239 26.7172C21.7294 29.1491 18.3062 30.5017 14.7501 30.5C11.2501 30.5 10.3751 29.1875 10.3751 29.1875C10.3751 29.1875 13.8751 27.875 15.6251 25.25C15.6251 25.25 8.6251 21.75 10.3751 12.125C10.3751 12.125 14.7501 16.5 20.0001 17.375V15.625Z" stroke="white" stroke-width="2" stroke-linecap="round" stroke-linejoin="round"/>
</svg>
