<svg width="40" height="40" viewBox="0 0 40 40" fill="none" xmlns="http://www.w3.org/2000/svg">
<path d="M20.0001 15.6249C20.0001 13.2187 22.0235 11.2171 24.4298 11.2499C25.2725 11.2596 26.0944 11.5125 26.7968 11.9782C27.4992 12.4439 28.0521 13.1025 28.3892 13.8749H32.2501L28.7173 17.4077C28.4893 20.9565 26.9184 24.2852 24.3239 26.7171C21.7294 29.1491 18.3062 30.5017 14.7501 30.4999C11.2501 30.4999 10.3751 29.1874 10.3751 29.1874C10.3751 29.1874 13.8751 27.8749 15.6251 25.2499C15.6251 25.2499 8.6251 21.7499 10.3751 12.1249C10.3751 12.1249 14.7501 16.4999 20.0001 17.3749V15.6249Z" stroke="black" stroke-width="2" stroke-linecap="round" stroke-linejoin="round"/>
</svg>
