<svg width="40" height="40" viewBox="0 0 40 40" fill="none" xmlns="http://www.w3.org/2000/svg">
<path d="M26.8315 18.7292C26.5314 18.669 26.3365 18.5791 26.2468 18.4594C26.1572 18.3397 26.1422 18.2296 26.2017 18.1291L26.292 17.9793C26.3118 17.9595 26.332 17.9294 26.3524 17.8891C26.3729 17.8488 26.4129 17.7636 26.4725 17.6337C26.532 17.5038 26.5771 17.3738 26.6078 17.2439C26.6386 17.114 26.6635 16.954 26.6827 16.7639C26.7019 16.5738 26.6968 16.3936 26.6674 16.2233C26.638 16.0531 26.5778 15.8681 26.4869 15.6684C26.3959 15.4687 26.2708 15.2885 26.1114 15.1279C25.8311 14.8475 25.4659 14.6673 25.016 14.5873C24.566 14.5073 24.116 14.5022 23.666 14.572C23.216 14.6418 22.791 14.7317 22.391 14.8418C21.991 14.9518 21.661 15.0568 21.4012 15.1567L21.0114 15.3372C20.811 15.3974 20.6459 15.4374 20.5159 15.4573C20.386 15.4771 20.2858 15.472 20.2154 15.4419C20.1451 15.4118 20.09 15.3817 20.0503 15.3517C20.0106 15.3216 19.9955 15.2515 20.0052 15.1414C20.0148 15.0313 20.0247 14.9363 20.0349 14.8563C20.0451 14.7763 20.0701 14.6512 20.1098 14.4809C20.1495 14.3106 20.1796 14.1755 20.2 14.0757C20.2 13.8357 20.185 13.6107 20.1549 13.4008C20.1248 13.1908 20.0599 12.9559 19.96 12.6961C19.8602 12.4362 19.7152 12.2263 19.5251 12.0662C19.335 11.9062 19.0949 11.7763 18.805 11.6764C18.515 11.5766 18.1399 11.5465 17.6797 11.5862C17.2195 11.6259 16.6994 11.7459 16.1195 11.9462C15.4193 12.1862 14.7091 12.5412 13.9891 13.011C13.269 13.4808 12.644 13.9708 12.114 14.4809C11.5841 14.991 11.0989 15.4861 10.6585 15.9662C10.2182 16.4462 9.87796 16.8364 9.63792 17.1365L9.30765 17.6166C8.64774 18.4768 8.15778 19.3371 7.83776 20.1973C7.51774 21.0576 7.36764 21.7076 7.38748 22.1473V22.7772C7.50782 23.7373 7.80289 24.5975 8.27267 25.3579C8.74246 26.1183 9.30252 26.7334 9.95286 27.2032C10.6032 27.673 11.3684 28.0731 12.2484 28.4033C13.1285 28.7336 13.9737 28.9737 14.7841 29.1234C15.5944 29.2732 16.4496 29.3782 17.3495 29.4384C18.83 29.5587 20.3652 29.4438 21.9551 29.0937C23.545 28.7436 25.0252 28.1384 26.3956 27.2781C27.766 26.4179 28.7312 25.3877 29.2912 24.1876C29.6311 23.4873 29.8062 22.8271 29.8164 22.2069C29.8267 21.5866 29.7217 21.0816 29.5015 20.6918C29.2813 20.302 28.9961 19.957 28.646 19.6568C28.296 19.3566 27.966 19.1364 27.6562 18.9963C27.3463 18.8561 27.0714 18.7662 26.8315 18.7265L26.8315 18.7292ZM17.6808 28.0604C15.5206 28.1603 13.6855 27.7401 12.1755 26.7998C10.6656 25.8595 9.91064 24.6693 9.91068 23.2292C9.91068 21.8089 10.6608 20.5838 12.1612 19.5539C13.6615 18.524 15.5017 17.9588 17.6817 17.8584C19.8618 17.7579 21.702 18.1179 23.2023 18.9384C24.7026 19.759 25.4528 20.8791 25.4528 22.2988C25.4528 23.739 24.6876 25.0341 23.1572 26.1843C21.6268 27.3345 19.8017 27.9596 17.6817 28.0594L17.6808 28.0604ZM16.811 19.7488C16.2311 19.8089 15.711 19.944 15.2508 20.1539C14.7906 20.3639 14.4305 20.6039 14.1707 20.874C13.9109 21.1442 13.6907 21.4341 13.5101 21.7439C13.3296 22.0536 13.2045 22.3586 13.1347 22.6588C13.065 22.959 13.0199 23.234 12.9994 23.4836C12.9789 23.7332 12.9689 23.9281 12.9696 24.0683L12.9994 24.3083V24.4283C12.9994 24.4885 13.0195 24.6085 13.0598 24.7884C13.1002 24.9682 13.1552 25.1334 13.225 25.2838C13.2948 25.4342 13.4097 25.5993 13.5697 25.7792C13.7297 25.9591 13.9198 26.1092 14.14 26.2295C15.4605 26.8696 16.6907 27.0645 17.8306 26.8142C18.9705 26.5639 19.8906 25.9888 20.5909 25.0889C20.8712 24.749 21.0562 24.3288 21.1458 23.8283C21.2355 23.3278 21.2153 22.8228 21.0854 22.3133C20.9554 21.8038 20.7304 21.3388 20.4104 20.9182C20.0904 20.4977 19.6155 20.1725 18.9856 19.9428C18.3557 19.713 17.6305 19.648 16.81 19.7479L16.811 19.7488ZM15.7308 25.4201C15.6105 25.44 15.4956 25.4451 15.3861 25.4355C15.2767 25.4259 15.1765 25.4057 15.0856 25.375C14.9948 25.3443 14.9048 25.3094 14.8158 25.2704C14.7269 25.2313 14.652 25.1763 14.5912 25.1052C14.5304 25.0342 14.4754 24.9641 14.426 24.895C14.3767 24.8258 14.3367 24.7458 14.306 24.6549C14.2753 24.564 14.2603 24.469 14.2609 24.3698C14.2609 24.1496 14.3211 23.9345 14.4414 23.7246C14.5617 23.5147 14.7269 23.3345 14.9368 23.1841C15.1468 23.0337 15.3817 22.9485 15.6415 22.9287C15.8214 22.9089 15.9965 22.914 16.1667 22.944C16.337 22.9741 16.482 23.024 16.6017 23.0938C16.7214 23.1636 16.8263 23.2436 16.9166 23.3339C17.0069 23.4241 17.0718 23.5291 17.1115 23.6488C17.1512 23.7685 17.1713 23.8985 17.172 24.0386C17.172 24.2588 17.107 24.4687 16.9771 24.6684C16.8472 24.8681 16.6721 25.0381 16.4519 25.1782C16.2317 25.3184 15.9917 25.3984 15.7318 25.4183L15.7308 25.4201ZM18.2809 23.2599C18.1407 23.3597 17.9957 23.4049 17.8459 23.3953C17.6961 23.3857 17.5912 23.3207 17.531 23.2004L17.4705 23.0803C17.4507 23.04 17.4407 23 17.4407 22.9603V22.8403C17.4407 22.7801 17.4507 22.7302 17.4705 22.6905L17.531 22.5704C17.5508 22.5301 17.5809 22.5 17.6212 22.4802L17.7114 22.3602C17.8715 22.2398 18.0264 22.1899 18.1761 22.2104C18.3259 22.2309 18.4309 22.3109 18.4911 22.4504C18.5512 22.5305 18.5762 22.6204 18.5659 22.7202C18.5557 22.8201 18.5256 22.9151 18.4757 23.0054C18.4258 23.0956 18.3608 23.1807 18.2808 23.2607L18.2809 23.2599ZM28.9322 16.9885C29.0526 16.9885 29.1627 16.9584 29.2625 16.8983C29.3623 16.8381 29.4424 16.7632 29.5025 16.6736C29.5627 16.584 29.6027 16.489 29.6226 16.3885C29.6424 16.3687 29.6523 16.3386 29.6523 16.2983C29.8923 14.0177 29.0923 12.7174 27.252 12.3974C26.7118 12.2975 26.2116 12.2876 25.7514 12.3676C25.6112 12.3676 25.4912 12.4025 25.3914 12.4722C25.2916 12.542 25.2064 12.6319 25.136 12.742C25.0656 12.8522 25.0307 12.967 25.0314 13.0867C25.0314 13.287 25.1015 13.457 25.2417 13.5965C25.3818 13.7361 25.5518 13.8062 25.7515 13.8068C27.312 13.4464 28.1521 13.9466 28.2717 15.3074C28.3121 15.6473 28.2919 15.9673 28.2113 16.2675C28.2113 16.4679 28.2814 16.6378 28.4215 16.7773C28.5617 16.9169 28.7316 16.987 28.9313 16.9876L28.9322 16.9885ZM28.4224 8.52807C27.5423 8.32774 26.362 8.36775 24.8816 8.6481C24.8617 8.6481 24.8416 8.65802 24.8211 8.67785L24.7913 8.73833L24.7616 8.76808C24.5414 8.82823 24.3612 8.95337 24.221 9.1435C24.0809 9.33362 24.0108 9.53875 24.0108 9.7589C24.0108 10.0591 24.1109 10.309 24.3113 10.5087C24.5116 10.7085 24.7516 10.8086 25.0314 10.8092H25.1216C25.1414 10.8092 25.1866 10.7993 25.257 10.7795C25.3274 10.7597 25.4023 10.7446 25.4816 10.7344C25.561 10.7241 25.6461 10.704 25.737 10.6739C25.8279 10.6438 25.9079 10.6137 25.9771 10.5837C26.0462 10.5536 26.1812 10.5386 26.3822 10.5386C26.5832 10.5386 26.8283 10.5536 27.1177 10.5837C27.407 10.6137 27.727 10.6886 28.0778 10.8083C28.4285 10.928 28.7786 11.0781 29.1281 11.2586C29.4776 11.4391 29.8277 11.689 30.1785 12.0084C30.5292 12.3279 30.8342 12.6978 31.0934 13.1183C31.6138 14.2986 31.714 15.4389 31.3939 16.5392C31.3939 16.559 31.3888 16.5792 31.3786 16.5997C31.3684 16.6201 31.3533 16.6701 31.3335 16.7494C31.3136 16.8288 31.2935 16.9037 31.273 16.9741C31.2525 17.0445 31.2324 17.1344 31.2125 17.2439C31.1927 17.3533 31.1827 17.4484 31.1828 17.529C31.1828 17.7089 31.2327 17.859 31.3325 17.9793C31.4324 18.0996 31.5575 18.1847 31.708 18.2347C31.8584 18.2846 32.0334 18.3096 32.2332 18.3095C32.7932 18.3095 33.1232 17.9693 33.223 17.2889C33.463 16.5087 33.5981 15.7636 33.6282 15.0538C33.6583 14.344 33.6084 13.7189 33.4784 13.1787C33.3485 12.6385 33.1536 12.1335 32.8937 11.6637C32.6339 11.1939 32.3337 10.7938 31.9931 10.4636C31.6526 10.1333 31.2724 9.83313 30.8525 9.56302C30.4327 9.29291 30.0275 9.07785 29.637 8.91784C29.2466 8.75783 28.8414 8.6279 28.4216 8.52804L28.4224 8.52807Z" fill="black"/>
</svg>
