<svg width="40" height="40" viewBox="0 0 40 40" fill="none" xmlns="http://www.w3.org/2000/svg">
<path d="M26.8315 18.7293C26.5314 18.6691 26.3365 18.5792 26.2468 18.4595C26.1572 18.3398 26.1422 18.2297 26.2017 18.1292L26.292 17.9794C26.3118 17.9596 26.332 17.9295 26.3524 17.8892C26.3729 17.8489 26.4129 17.7638 26.4725 17.6338C26.532 17.5039 26.5771 17.374 26.6078 17.244C26.6386 17.1141 26.6635 16.9541 26.6827 16.764C26.7019 16.5739 26.6968 16.3937 26.6674 16.2235C26.6379 16.0532 26.5778 15.8682 26.4869 15.6685C26.3959 15.4688 26.2708 15.2886 26.1114 15.128C25.8311 14.8476 25.4659 14.6675 25.016 14.5874C24.566 14.5074 24.116 14.5023 23.666 14.5721C23.216 14.6419 22.791 14.7318 22.391 14.8419C21.991 14.952 21.661 15.0569 21.4012 15.1568L21.0114 15.3373C20.811 15.3975 20.6459 15.4375 20.5159 15.4574C20.386 15.4772 20.2858 15.4721 20.2154 15.442C20.1451 15.4119 20.09 15.3819 20.0503 15.3518C20.0106 15.3217 19.9955 15.2517 20.0052 15.1415C20.0148 15.0314 20.0247 14.9364 20.0349 14.8564C20.0451 14.7764 20.0701 14.6513 20.1098 14.481C20.1495 14.3107 20.1796 14.1756 20.2 14.0758C20.2 13.8358 20.185 13.6108 20.1549 13.4009C20.1248 13.191 20.0599 12.9561 19.96 12.6962C19.8602 12.4363 19.7152 12.2264 19.5251 12.0664C19.335 11.9063 19.0949 11.7764 18.805 11.6766C18.515 11.5767 18.1399 11.5466 17.6797 11.5863C17.2195 11.626 16.6994 11.746 16.1195 11.9463C15.4193 12.1864 14.7091 12.5413 13.9891 13.0111C13.269 13.4809 12.644 13.9709 12.114 14.481C11.5841 14.9911 11.0989 15.4862 10.6585 15.9663C10.2182 16.4464 9.87796 16.8365 9.63792 17.1367L9.30765 17.6167C8.64774 18.477 8.15778 19.3372 7.83776 20.1974C7.51774 21.0577 7.36764 21.7077 7.38748 22.1474V22.7773C7.50782 23.7374 7.80289 24.5976 8.27267 25.358C8.74246 26.1184 9.30252 26.7335 9.95286 27.2033C10.6032 27.6731 11.3684 28.0732 12.2484 28.4035C13.1285 28.7338 13.9737 28.9738 14.7841 29.1236C15.5944 29.2734 16.4496 29.3783 17.3495 29.4385C18.83 29.5588 20.3652 29.444 21.9551 29.0938C23.545 28.7437 25.0251 28.1385 26.3956 27.2783C27.766 26.418 28.7312 25.3878 29.2912 24.1877C29.6311 23.4875 29.8062 22.8272 29.8164 22.207C29.8267 21.5867 29.7217 21.0817 29.5015 20.6919C29.2813 20.3022 28.9961 19.9572 28.646 19.6569C28.296 19.3567 27.966 19.1365 27.6562 18.9964C27.3463 18.8562 27.0714 18.7663 26.8315 18.7266L26.8315 18.7293ZM17.6808 28.0605C15.5206 28.1604 13.6855 27.7402 12.1755 26.7999C10.6656 25.8597 9.91064 24.6695 9.91068 23.2293C9.91068 21.809 10.6608 20.5839 12.1612 19.554C13.6615 18.5241 15.5017 17.959 17.6817 17.8585C19.8618 17.758 21.702 18.118 23.2023 18.9386C24.7026 19.7591 25.4528 20.8792 25.4528 22.2989C25.4528 23.7391 24.6876 25.0343 23.1572 26.1845C21.6268 27.3347 19.8017 27.9597 17.6817 28.0595L17.6808 28.0605ZM16.811 19.7489C16.2311 19.8091 15.711 19.9441 15.2508 20.1541C14.7906 20.364 14.4305 20.6041 14.1707 20.8742C13.9109 21.1443 13.6907 21.4342 13.5101 21.744C13.3296 22.0538 13.2045 22.3588 13.1347 22.659C13.065 22.9592 13.0199 23.2341 12.9994 23.4837C12.9789 23.7333 12.9689 23.9282 12.9696 24.0684L12.9994 24.3084V24.4285C12.9994 24.4886 13.0195 24.6086 13.0598 24.7885C13.1002 24.9683 13.1552 25.1335 13.225 25.2839C13.2948 25.4343 13.4097 25.5995 13.5697 25.7793C13.7297 25.9592 13.9198 26.1093 14.14 26.2296C15.4605 26.8697 16.6907 27.0646 17.8306 26.8143C18.9705 26.564 19.8906 25.9889 20.5909 25.089C20.8712 24.7492 21.0562 24.329 21.1458 23.8284C21.2355 23.3279 21.2153 22.8229 21.0854 22.3134C20.9554 21.8039 20.7304 21.3389 20.4104 20.9184C20.0904 20.4978 19.6155 20.1727 18.9856 19.9429C18.3557 19.7131 17.6305 19.6481 16.81 19.748L16.811 19.7489ZM15.7308 25.4203C15.6105 25.4401 15.4956 25.4452 15.3861 25.4356C15.2767 25.426 15.1765 25.4058 15.0856 25.3751C14.9948 25.3444 14.9048 25.3095 14.8158 25.2705C14.7269 25.2315 14.652 25.1764 14.5912 25.1053C14.5304 25.0343 14.4754 24.9642 14.426 24.8951C14.3767 24.826 14.3367 24.746 14.306 24.655C14.2753 24.5641 14.2603 24.4691 14.2609 24.3699C14.2609 24.1497 14.3211 23.9347 14.4414 23.7247C14.5617 23.5148 14.7269 23.3346 14.9368 23.1842C15.1468 23.0338 15.3817 22.9486 15.6415 22.9288C15.8214 22.909 15.9965 22.9141 16.1667 22.9442C16.337 22.9742 16.482 23.0241 16.6017 23.0939C16.7214 23.1637 16.8263 23.2437 16.9166 23.334C17.0069 23.4242 17.0718 23.5292 17.1115 23.6489C17.1512 23.7686 17.1713 23.8986 17.172 24.0387C17.172 24.2589 17.107 24.4688 16.9771 24.6686C16.8472 24.8683 16.6721 25.0382 16.4519 25.1784C16.2317 25.3185 15.9917 25.3985 15.7318 25.4184L15.7308 25.4203ZM18.2809 23.26C18.1407 23.3599 17.9957 23.405 17.8459 23.3954C17.6961 23.3858 17.5912 23.3208 17.531 23.2005L17.4705 23.0804C17.4507 23.0401 17.4407 23.0001 17.4407 22.9604V22.8404C17.4407 22.7802 17.4507 22.7303 17.4705 22.6906L17.531 22.5706C17.5508 22.5302 17.5809 22.5002 17.6212 22.4803L17.7114 22.3603C17.8715 22.24 18.0264 22.19 18.1761 22.2105C18.3259 22.231 18.4309 22.311 18.4911 22.4506C18.5512 22.5306 18.5762 22.6205 18.5659 22.7203C18.5557 22.8202 18.5256 22.9152 18.4757 23.0055C18.4258 23.0957 18.3608 23.1808 18.2808 23.2609L18.2809 23.26ZM28.9322 16.9886C29.0526 16.9886 29.1627 16.9585 29.2625 16.8984C29.3623 16.8382 29.4424 16.7634 29.5025 16.6737C29.5627 16.5841 29.6027 16.4891 29.6226 16.3886C29.6424 16.3688 29.6523 16.3387 29.6523 16.2984C29.8923 14.0178 29.0923 12.7175 27.252 12.3975C26.7118 12.2976 26.2116 12.2877 25.7514 12.3677C25.6112 12.3677 25.4912 12.4026 25.3914 12.4724C25.2916 12.5421 25.2064 12.632 25.136 12.7422C25.0656 12.8523 25.0307 12.9672 25.0314 13.0868C25.0314 13.2872 25.1015 13.4571 25.2417 13.5966C25.3818 13.7362 25.5518 13.8063 25.7515 13.8069C27.312 13.4466 28.1521 13.9468 28.2717 15.3075C28.3121 15.6474 28.2919 15.9674 28.2113 16.2677C28.2113 16.468 28.2814 16.6379 28.4215 16.7775C28.5617 16.917 28.7316 16.9871 28.9313 16.9877L28.9322 16.9886ZM28.4224 8.52819C27.5423 8.32786 26.362 8.36787 24.8816 8.64822C24.8617 8.64822 24.8416 8.65814 24.8211 8.67797L24.7913 8.73845L24.7616 8.7682C24.5414 8.82836 24.3612 8.95349 24.221 9.14362C24.0809 9.33374 24.0108 9.53887 24.0108 9.75902C24.0108 10.0592 24.1109 10.3092 24.3113 10.5089C24.5116 10.7086 24.7516 10.8087 25.0314 10.8094H25.1216C25.1414 10.8094 25.1866 10.7994 25.257 10.7796C25.3274 10.7598 25.4023 10.7447 25.4816 10.7345C25.561 10.7243 25.6461 10.7041 25.737 10.674C25.8279 10.6439 25.9079 10.6139 25.9771 10.5838C26.0462 10.5537 26.1812 10.5387 26.3822 10.5387C26.5832 10.5387 26.8283 10.5537 27.1177 10.5838C27.407 10.6139 27.727 10.6887 28.0778 10.8084C28.4285 10.9281 28.7786 11.0782 29.1281 11.2587C29.4776 11.4392 29.8277 11.6892 30.1785 12.0086C30.5292 12.328 30.8342 12.6979 31.0934 13.1184C31.6138 14.2987 31.714 15.439 31.3939 16.5393C31.3939 16.5591 31.3888 16.5793 31.3786 16.5998C31.3684 16.6203 31.3533 16.6702 31.3335 16.7496C31.3136 16.8289 31.2935 16.9038 31.273 16.9742C31.2525 17.0446 31.2324 17.1345 31.2125 17.244C31.1927 17.3535 31.1827 17.4485 31.1828 17.5291C31.1828 17.709 31.2327 17.8591 31.3325 17.9794C31.4324 18.0997 31.5575 18.1849 31.708 18.2348C31.8584 18.2847 32.0334 18.3097 32.2332 18.3097C32.7932 18.3097 33.1232 17.9695 33.223 17.2891C33.463 16.5088 33.5981 15.7638 33.6282 15.0539C33.6583 14.3441 33.6084 13.7191 33.4784 13.1789C33.3485 12.6387 33.1536 12.1337 32.8937 11.6638C32.6339 11.194 32.3337 10.794 31.9931 10.4637C31.6526 10.1334 31.2724 9.83325 30.8525 9.56314C30.4327 9.29303 30.0275 9.07797 29.637 8.91796C29.2466 8.75795 28.8414 8.62802 28.4216 8.52816L28.4224 8.52819Z" fill="white"/>
</svg>
