<svg width="40" height="40" viewBox="0 0 40 40" fill="none" xmlns="http://www.w3.org/2000/svg">
<path d="M24.4604 15.7971C24.7538 15.7971 25.0431 15.8186 25.3297 15.8497C24.549 12.2518 20.661 9.57791 16.2235 9.57791C11.2619 9.57791 7.19751 12.9246 7.19751 17.1738C7.19751 19.6262 8.55001 21.6404 10.8093 23.2027L9.90668 25.8901L13.0616 24.324C14.1913 24.5448 15.0966 24.7725 16.2235 24.7725C16.5066 24.7725 16.7869 24.7587 17.0658 24.7366C16.8893 24.1399 16.7869 23.5142 16.7869 22.8656C16.7869 18.9638 20.173 15.7971 24.4604 15.7971ZM19.6082 13.3752C20.2879 13.3752 20.7378 13.8182 20.7378 14.4903C20.7378 15.1596 20.2879 15.6081 19.6082 15.6081C18.9312 15.6081 18.2529 15.1596 18.2529 14.4903C18.2529 13.8182 18.9313 13.3752 19.6082 13.3752ZM13.2914 15.6081C12.6144 15.6081 11.932 15.1596 11.932 14.4903C11.932 13.8181 12.6144 13.3752 13.2914 13.3752C13.9676 13.3752 14.4183 13.8181 14.4183 14.4903C14.4183 15.1596 13.9676 15.6081 13.2914 15.6081ZM32.6986 22.7583C32.6986 19.1874 29.0875 16.2768 25.0321 16.2768C20.7378 16.2768 17.3559 19.1874 17.3559 22.7583C17.3559 26.3345 20.7378 29.2388 25.0321 29.2388C25.9305 29.2388 26.8373 29.0159 27.7398 28.7917L30.2158 30.1331L29.5367 27.9015C31.3489 26.5559 32.6986 24.7725 32.6986 22.7583ZM22.543 21.6404C22.0938 21.6404 21.6404 21.1982 21.6404 20.7468C21.6404 20.3018 22.0938 19.854 22.543 19.854C23.2255 19.854 23.6726 20.3018 23.6726 20.7468C23.6726 21.1982 23.2255 21.6404 22.543 21.6404ZM27.5073 21.6404C27.0616 21.6404 26.6109 21.1982 26.6109 20.7468C26.6109 20.3018 27.0616 19.854 27.5073 19.854C28.1842 19.854 28.6369 20.3018 28.6369 20.7468C28.6369 21.1982 28.1842 21.6404 27.5073 21.6404Z" fill="white"/>
</svg>
