<svg width="40" height="40" viewBox="0 0 40 40" fill="none" xmlns="http://www.w3.org/2000/svg">
<path d="M24.4604 15.7973C24.7538 15.7973 25.0431 15.8188 25.3297 15.8499C24.549 12.252 20.661 9.57812 16.2235 9.57812C11.2619 9.57812 7.19751 12.9248 7.19751 17.174C7.19751 19.6264 8.55001 21.6407 10.8093 23.2029L9.90668 25.8903L13.0616 24.3242C14.1913 24.545 15.0966 24.7727 16.2235 24.7727C16.5066 24.7727 16.7869 24.7589 17.0658 24.7368C16.8893 24.1402 16.7869 23.5144 16.7869 22.8658C16.7869 18.964 20.173 15.7973 24.4604 15.7973ZM19.6082 13.3754C20.2879 13.3754 20.7378 13.8184 20.7378 14.4905C20.7378 15.1598 20.2879 15.6084 19.6082 15.6084C18.9312 15.6084 18.2529 15.1598 18.2529 14.4905C18.2529 13.8184 18.9313 13.3754 19.6082 13.3754ZM13.2914 15.6083C12.6144 15.6083 11.932 15.1598 11.932 14.4905C11.932 13.8184 12.6144 13.3754 13.2914 13.3754C13.9676 13.3754 14.4183 13.8184 14.4183 14.4905C14.4183 15.1598 13.9676 15.6083 13.2914 15.6083ZM32.6986 22.7585C32.6986 19.1876 29.0875 16.277 25.0321 16.277C20.7378 16.277 17.3559 19.1876 17.3559 22.7585C17.3559 26.3347 20.7378 29.239 25.0321 29.239C25.9305 29.239 26.8373 29.0161 27.7398 28.7919L30.2158 30.1333L29.5367 27.9017C31.3489 26.5562 32.6986 24.7727 32.6986 22.7585ZM22.543 21.6407C22.0938 21.6407 21.6404 21.1984 21.6404 20.7471C21.6404 20.302 22.0938 19.8542 22.543 19.8542C23.2255 19.8542 23.6726 20.302 23.6726 20.7471C23.6726 21.1984 23.2255 21.6407 22.543 21.6407ZM27.5073 21.6407C27.0616 21.6407 26.6109 21.1984 26.6109 20.7471C26.6109 20.302 27.0616 19.8542 27.5073 19.8542C28.1842 19.8542 28.6369 20.302 28.6369 20.7471C28.6369 21.1984 28.1842 21.6407 27.5073 21.6407Z" fill="black"/>
</svg>
