<svg width="40" height="40" viewBox="0 0 40 40" fill="none" xmlns="http://www.w3.org/2000/svg">
<g clip-path="url(#clip0_30_395)">
<path d="M35.8812 20.7918C35.6794 21.0418 35.3968 21.4168 34.7913 21.4585L32.3692 21.3335V18.0416C32.3692 16.8748 32.5711 16.5415 32.8133 16.3331C33.0959 16.1248 33.4592 15.9581 33.6206 15.3747V15.208C33.5803 15.1664 33.5399 15.1664 33.4995 15.2497C33.2977 15.5414 33.1362 15.6664 32.7325 15.5831C31.5215 15.2914 30.1894 15.083 30.1894 17.4165V17.6665C30.1894 17.8332 30.0683 17.9166 29.9472 17.6665C29.9472 17.6249 29.9068 17.5832 29.9068 17.5832C29.6243 16.9582 29.2609 16.4581 28.6554 16.0414C28.0095 15.6247 27.2829 15.3747 26.4352 15.3747C25.5875 15.3747 24.7801 15.6247 24.1343 16.1248C23.7306 16.4581 23.448 16.9165 23.2865 17.2915C23.2462 17.3749 23.1654 17.4999 23.1251 17.3749C23.004 17.0832 23.3269 16.5415 23.448 16.1248C23.4884 15.9998 23.4884 15.9164 23.448 15.7914C23.4076 15.5414 23.2865 15.6664 23.2865 15.7497C23.1654 16.2914 22.5599 15.9581 22.2774 15.7914C21.7929 15.4997 21.2682 15.333 20.6627 15.333C19.5324 15.333 18.5232 15.7914 17.7562 16.5831C17.0296 17.3332 16.5452 18.4166 16.5452 19.5834C16.5452 20.7501 16.9488 21.8335 17.6755 22.6252C18.4021 23.3753 19.492 23.792 20.6223 23.792C21.47 23.792 23.2865 23.2503 23.0847 22.1252C23.0847 22.0419 23.0443 21.8752 23.0443 21.8335C23.0847 21.7502 23.1251 21.7919 23.1654 21.8335C23.2462 21.9585 23.3269 22.1252 23.4076 22.2502C23.9324 23.0836 25.1435 23.792 26.4352 23.792C27.1215 23.792 27.8077 23.6253 28.3729 23.292C29.0591 22.9169 29.5435 22.2919 29.8665 21.5835C29.8665 21.5418 29.9068 21.5418 29.9068 21.5002C29.9876 21.2918 30.149 21.2501 30.149 21.5418V23.2086C30.149 23.7087 30.5931 23.8753 31.3197 23.8337H34.5087C35.3161 23.8337 35.6794 23.542 35.7601 22.9169C35.8409 22.4169 35.7601 22.0419 35.8005 21.7085C35.8408 21.2085 36.0023 20.9585 36.0023 20.9168C36.1638 20.7501 36.0427 20.6668 35.8812 20.7918ZM21.8333 20.8334C21.5104 21.1668 21.1067 21.3335 20.6223 21.3335C20.1379 21.3335 19.7342 21.1251 19.4113 20.8334C19.0883 20.5001 18.9269 20.0834 18.9269 19.5834C18.9269 19.0833 19.1287 18.6666 19.4113 18.3333C19.7342 17.9999 20.1379 17.8332 20.6223 17.8332C21.1067 17.8332 21.5104 18.0416 21.8333 18.3333C22.1563 18.6666 22.3177 19.0833 22.3177 19.5834C22.3581 20.0834 22.1563 20.5418 21.8333 20.8334ZM27.6866 20.8334C27.3637 21.1668 26.96 21.3335 26.4756 21.3335C25.9912 21.3335 25.5875 21.1251 25.2646 20.8334C24.9416 20.5001 24.7801 20.0834 24.7801 19.5834C24.7801 19.0833 24.982 18.6666 25.2646 18.3333C25.5875 17.9999 25.9912 17.8332 26.4756 17.8332C26.96 17.8332 27.3637 18.0416 27.6866 18.3333C28.0095 18.6666 28.171 19.0833 28.171 19.5834C28.171 20.0834 28.0095 20.5418 27.6866 20.8334Z" fill="black"/>
<path d="M17.0296 22.2086C16.5452 21.8335 16.3433 21.6669 16.5855 21.1252C16.6663 20.9585 16.5452 20.8751 16.4241 20.9585C15.8589 21.4169 15.2131 21.5419 14.5268 21.2918C12.6699 20.6668 13.2754 17.5832 15.2534 17.8333C16.0204 17.9166 16.6663 17.7082 17.0296 16.9165C17.2314 16.4998 17.3122 16.0831 17.3929 15.2914C17.4333 15.1247 17.2314 15.1247 17.1911 15.2081C17.07 15.5414 16.9489 15.6248 16.7874 15.6664C16.4241 15.7498 16.0608 15.5831 15.6571 15.4998C15.0516 15.4164 14.5672 15.4164 14.002 15.5831C13.3158 15.7914 12.7103 16.1248 12.2259 16.6248C11.4992 17.3749 11.0552 18.4583 11.0552 19.6251C11.0552 20.1251 11.0956 20.5835 11.2167 21.0002C11.3378 21.5002 11.257 21.4585 10.8937 21.5002H8.10836L10.6112 18.6666C11.3378 17.9166 11.3378 17.5416 11.3378 16.5832C11.3378 16.2915 11.2974 15.9581 11.3781 15.6664C11.4185 15.5414 11.3378 15.4998 11.2167 15.5414C10.9341 15.6248 10.4497 15.6248 9.64233 15.6248H6.00925C5.80741 15.6248 5.72668 15.4998 5.80741 15.3331C5.80741 15.2914 5.80741 15.1664 5.72668 15.1664C5.2019 15.4164 5.0808 16.5415 5.12117 17.2499C5.12117 17.6249 5.323 17.8333 5.60558 17.8333H8.47167L5.52484 21.0835C5.323 21.3335 5.12117 21.6669 5.12117 22.1252V23.042C5.12117 23.4587 5.36337 23.7087 5.80741 23.792H10.7323C11.2167 23.7087 11.5396 23.4587 11.4992 22.8753V22.2502C11.5396 22.0836 11.6607 22.0836 11.7414 22.1669C11.8625 22.3336 11.9433 22.4586 12.1048 22.5836C12.8314 23.3337 13.8809 23.8337 15.0112 23.8337C15.3745 23.8337 15.8186 23.7504 16.2626 23.542C16.7066 23.3337 17.1507 23.0003 17.2314 22.6253C17.2718 22.5003 17.1911 22.3753 17.0296 22.2086Z" fill="black"/>
</g>
<defs>
<clipPath id="clip0_30_395">
<rect width="31" height="15" fill="white" transform="translate(5 12)"/>
</clipPath>
</defs>
</svg>
